<svg height="600" viewBox="0 0 773.09925 600" width="773.09925" xmlns="http://www.w3.org/2000/svg"><path d="m225.34292 702.60436c5.05211 17.52641 19.80364 29.79509 35.19135 40.21717q3.22281 2.18325 6.44766 4.266c.01457.00637.02957.02.04432.02649.10343.06645.20707.133.30345.19991.44371.286.88758.57223 1.32761.85495l-.24171.10858s-.23734.12621.02233.02024c.07728-.03233.15825-.06136.23537-.09387 8.93929-3.60536 18.03735-7.4764 24.888-14.23042 7.10651-7.0136 11.25952-18.01412 7.41141-27.228a17.5918 17.5918 0 0 0 -1.90481-3.41886c-.31214-.44666-.64831-.87416-.99832-1.29373a18.85591 18.85591 0 0 0 -32.3856 5.72979c-1.1305-10.52575 7.54879-19.34265 15.90135-25.84822 8.35623-6.50228 17.85126-13.58341 19.46674-24.05073.90215-5.82389-1.12306-11.46779-4.81223-15.99853-.11422-.13766-.22828-.27513-.34591-.409a27.51849 27.51849 0 0 0 -17.68718-9.48885c-12.81321-1.33167-25.25927 5.4506-34.56778 14.35941-14.98204 14.33373-24.03931 36.35024-18.29605 56.27767z" fill="#f1f1f1" transform="translate(-213.45038 -150)"/><path d="m249.42712 679.68a46.77976 46.77976 0 0 0 -5.60443 12.36092 40.61933 40.61933 0 0 0 -1.404 11.9968 52.04362 52.04362 0 0 0 6.81623 23.68461 74.90284 74.90284 0 0 0 11.29937 15.09919q3.22281 2.18325 6.44766 4.266c.01457.00637.02957.02.04432.02649.10343.06645.20707.133.30345.19991.44371.286.88758.57223 1.32761.85495 0 0-.479.23479-.21938.12882.07728-.03233.15825-.06136.23537-.09387a41.40487 41.40487 0 0 1 13.249-35.6508 41.75957 41.75957 0 0 1 17.14558-9.22645c-.31214-.44666-.64831-.87416-.99832-1.29373a43.29621 43.29621 0 0 0 -7.14663 2.70436 42.424 42.424 0 0 0 -19.1818 18.49347 43.37374 43.37374 0 0 0 -4.72252 23.80133c-.3673-.33284-.735-.67291-1.09168-1.00976-6.79289-6.33309-12.82634-13.60244-16.90958-21.99188a48.41654 48.41654 0 0 1 -5.06985-22.90746c.33325-8.65329 3.781-16.66846 8.77295-23.64613a101.345 101.345 0 0 1 19.2105-19.79843 115.15818 115.15818 0 0 1 23.89219-14.75057.828.828 0 0 0 .41668-1.06262.70421.70421 0 0 0 -.34591-.409.613.613 0 0 0 -.53243.02262c-1.0539.48517-2.10048.977-3.13867 1.49006a116.46492 116.46492 0 0 0 -24.06247 15.87266c-7.08283 6.03856-13.75087 12.93757-18.73324 20.83851z" fill="#fff" transform="translate(-213.45038 -150)"/><path d="m238.265 584.987h13.425l6.386-51.78-19.813.001z" fill="#ffb7b7"/><path d="m448.29143 730.60424 26.43742-.00107h.00107a16.84892 16.84892 0 0 1 16.848 16.84773v.5475l-43.28569.0016z" fill="#2f2e41" transform="translate(-213.45038 -150)"/><path d="m165.581 584.987h13.425l6.386-51.78-19.813.001z" fill="#ffb7b7"/><path d="m375.60734 730.60424 26.43742-.00107h.00107a16.84891 16.84891 0 0 1 16.848 16.84773v.5475l-43.28569.0016z" fill="#2f2e41" transform="translate(-213.45038 -150)"/><path d="m160.112 350.309v136.716l3.461 88.259h28.554l9.519-166.135 19.036 68.358 12.114 96.046 34.611-1.73-23.362-221.514z" fill="#2f2e41"/><circle cx="193.30584" cy="206.67144" fill="#ffb8b8" r="20.76688"/><path d="m184.677 232.849-5.529 5.838-5.192 116.814 61.436-1.73-14.71-102.104-12.979-12.438-6.586-6.38z" fill="#f9a826"/><g transform="translate(-213.45038 -150)"><path d="m388.27186 395.60934 4.66336-7.56867 1.39364 16.22154s11.24873 36.34205 10.38345 68.35766 4.32643 107.29554-2.59587 108.16083-36.342 2.59586-36.342-3.46115-1.73058-167.00036-1.73058-167.00036z" fill="#2f2e41"/><path d="m419.75911 388.04067 11.77709 9.29924 25.9586 9.51816s0 110.75669 5.19172 136.7153 14.70988 28.55446 2.59587 29.41975-11.24873-3.46115-11.24873-3.46115-35.47676-110.75672-33.74619-138.44589-2.25894-43.04541-.52836-43.04541z" fill="#2f2e41"/><path d="m387.10956 363.16869s1.76443-3.09861 1.35423-13.45 15.35253-4.49678 28.52394-5.48425 10.38327 17.28192 10.38327 17.28192.95024-1.086 2.98468-9.90338-2.58483-17.6042-2.58483-17.6042c-1.36045-9.2654-8.69232-6.29583-8.69232-6.29583 3.53094 1.37456 2.85278 4.31368 2.85278 4.31368-2.98882-5.24021-10.32069-2.27064-10.32069-2.27064-9.7786-6.13631-19.6891 1.94444-19.6891 1.94444-11.813 2.681-4.88515 12.07543-4.88515 12.07543-11.88003 6.00364.07319 19.39283.07319 19.39283z" fill="#2f2e41"/><path d="m365.80342 564.80782a8.76008 8.76008 0 0 0 -1.55337-13.34245l3.74089-19.66571-11.39633-5.1881-4.89281 27.846a8.80758 8.80758 0 0 0 14.10162 10.35028z" fill="#ffb7b7"/><path d="m368.37026 410.31922-2.29755-1.23184s-12.41233 4.693-11.547 8.15413-6.9223 124.60128-4.32644 128.92772 23.36275.86528 23.36275.86528z" fill="#2f2e41"/><path d="m467.15028 556.652a8.76014 8.76014 0 0 1 -.30766-13.429l-6.42588-18.959 10.56888-6.715 8.69856 26.90117a8.80758 8.80758 0 0 1 -12.5339 12.20185z" fill="#ffb7b7"/><path d="m457.0072 540.1231s21.046.55452 23.01832-4.08947-22.50152-123.54147-22.12346-127.08905-12.5642-6.478-12.5642-6.478l-2.105 1.53787z" fill="#2f2e41"/><path d="m595.45038 750h-381a1 1 0 0 1 0-2h381a1 1 0 0 1 0 2z" fill="#cbcbcb"/><path d="m986.54962 458h-351.6581v-218.93074h351.6581zm-343.47595-8.18215h335.29381v-202.56645h-335.29381z" fill="#e5e5e5"/></g><path d="m425.53215 93.16049h343.476v210.74826h-343.476z" fill="#fff"/><path d="m982.45855 296.5736v-12.93991h-47.64782v-40.47321h-12.94v40.47321h-84.82826v-40.47321h-12.94v40.47321h-130.83685v-40.47321h-12.94v40.47321h-41.343v12.93991h41.343v50.322h-41.343v12.93992h41.343v53.91637h-41.343v12.93991h111.075v27.217h12.93962v-27.217h61.10521v27.217h12.94v-27.217h145.4161v-12.93996h-145.41608v-53.91637h145.41608v-12.93992h-47.64782v-50.322zm-158.35609 0v15.81546h-130.83684v-15.81546zm-130.83684 28.7554h130.83684v21.56658h-130.83684zm0 88.42287v-53.9164h56.792v53.91637zm130.83684 0h-61.10521v-53.9164h61.10521zm97.76826-66.85629h-84.82825v-50.322h84.82825z" fill="#e6e6e6" transform="translate(-213.45038 -150)"/><path d="m892.9978 212.0474c0 34.26782-62.0474 110.60623-62.0474 110.60623s-62.0474-76.33841-62.0474-110.60623a62.0474 62.0474 0 0 1 124.0948 0z" fill="#f9a826" transform="translate(-213.45038 -150)"/><path d="m859.31567 209.34968a28.36454 28.36454 0 1 1 -28.36454-28.36454 28.35155 28.35155 0 0 1 28.36454 28.36454z" fill="#fff" transform="translate(-213.45038 -150)"/><circle cx="617.50002" cy="200.70983" fill="#f9a826" r="16.72582"/></svg>