<svg height="610.8036" viewBox="0 0 773.11417 610.8036" width="773.11417" xmlns="http://www.w3.org/2000/svg"><path d="m309.47335 12.71102h463.64082v220.00561h-463.64082z" fill="#e6e6e6"/><path d="m322.73131 31.57689h437.12554v183.55756h-437.12554z" fill="#fff"/><path d="m309.27566 0h463.64082v19.69684h-463.64082z" fill="#6c63ff"/><circle cx="323.91285" cy="11.58218" fill="#fff" r="3.65074"/><circle cx="337.76985" cy="11.58218" fill="#fff" r="3.65074"/><circle cx="351.62748" cy="11.58218" fill="#fff" r="3.65074"/><path d="m584.2717 61.27926h72.6761v124.15499h-72.6761z" fill="#f2f2f2"/><path d="m425.64037 61.27709h146.59028v34.17507h-146.59028z" fill="#6c63ff"/><path d="m425.64037 104.96926h146.59028v36.77064h-146.59028z" fill="#f2f2f2"/><path d="m425.64037 151.25701h146.59028v34.17507h-146.59028z" fill="#f2f2f2"/><path d="m434.6459 511.69953a17.86664 17.86664 0 0 0 -19.78976-17.86231 17.20233 17.20233 0 0 0 -2.34789.43277l-60.46411-51.82742 3.61319-19.47549-29.8018-9.65812-8.9854 31.2107a18.10285 18.10285 0 0 0 7.6802 20.20409l74.38136 47.04492a17.0684 17.0684 0 0 0 .09142 1.75175 17.86684 17.86684 0 0 0 21.691 15.50179 17.38164 17.38164 0 0 0 2.10507-.60774 17.92013 17.92013 0 0 0 11.82672-16.71494z" fill="#9f616a" transform="translate(-213.44291 -144.5982)"/><path d="m284.32471 571.80732h77.958c0 2.24085 80.34537 4.05949 80.34537 4.05949a20.88352 20.88352 0 0 1 3.426 3.24759 20.15185 20.15185 0 0 1 4.70964 12.99037v3.24759a20.30493 20.30493 0 0 1 -20.29742 20.29744h-146.14159a20.31509 20.31509 0 0 1 -20.29744-20.29744v-3.24759a20.32567 20.32567 0 0 1 20.29744-20.29745z" fill="#3f3d56" transform="translate(-213.44291 -144.5982)"/><path d="m134.57286 470.24525h21.10934v136.39882h-21.10934z" fill="#3f3d56"/><path d="m429.20555 752.939c0 2.5538-31.9879.98788-71.447.98788s-71.447 1.566-71.447-.98788 31.9879-22.80584 71.447-22.80584 71.447 20.25194 71.447 22.80584z" fill="#3f3d56" transform="translate(-213.44291 -144.5982)"/><path d="m196.707 589.916 19.906-.002 9.471-51.632-29.381.002z" fill="#9f616a"/><path d="m405.0721 753.81057 64.18948-.00238v-.81189a24.98376 24.98376 0 0 0 -24.9835-24.98409h-.00258l-39.20459.00158z" fill="#2f2e41" transform="translate(-213.44291 -144.5982)"/><path d="m439.924 702.4959 39.68705-88.99646a32.61556 32.61556 0 0 0 -14.31961-41.86823l-86.083-46.16083-39.2815-3.34115-36.2345-3.29358-.26125.44242c-.3342.56453-8.12493 14.0211-2.85869 28.77639 3.99457 11.19214 14.385 19.93431 30.88264 25.9839 38.50726 14.11941 82.99077 26.187 100.32844 30.719a5.60369 5.60369 0 0 1 3.5905 2.8575 5.68054 5.68054 0 0 1 .31874 4.54472l-36.87071 82.83742a7.307 7.307 0 0 0 6.18557 9.79034l27.55021 2.006q.35085.0333.69852.0333a7.3021 7.3021 0 0 0 6.66759-4.33074z" fill="#cbcbcb" transform="translate(-213.44291 -144.5982)"/><path d="m183.716 589.916 19.906-.002 9.472-51.632-29.381.002z" fill="#9f616a"/><path d="m392.08174 753.81057 64.18947-.00238v-.81189a24.98375 24.98375 0 0 0 -24.98349-24.98409h-.00258l-39.20459.00158z" fill="#2f2e41" transform="translate(-213.44291 -144.5982)"/><path d="m425.30988 707.36729 39.68705-88.99646a32.61558 32.61558 0 0 0 -14.31961-41.86824l-86.083-46.16082-39.2815-3.34115-28.38066-2.46184.00388-.38932c-.33419.56452-8.12492 14.02109-2.85868 28.77638 3.99457 11.19214 6.266 19.93431 22.76366 25.9839 38.50726 14.11941 82.99077 26.187 100.32844 30.719a5.60372 5.60372 0 0 1 3.5905 2.8575 5.68056 5.68056 0 0 1 .31874 4.54473l-36.8707 82.83736a7.307 7.307 0 0 0 6.18557 9.79035l27.55021 2.006q.35085.0333.69852.0333a7.30209 7.30209 0 0 0 6.66758-4.33069z" fill="#cbcbcb" transform="translate(-213.44291 -144.5982)"/><path d="m350.51745 526.16257c1.90279-1.346 29.22832 12.99037 34.09971 1.6238-22.73314-56.83284-7.06762-81.37433-20.99278-113.96521a40.58128 40.58128 0 0 0 -26.90124-23.02491l-36.12866-1.8236-.18712.09039a42.22708 42.22708 0 0 0 -23.08923 44.79783c.12853 35.46886 21.35037 62.52084 13.92991 88.24705a8.31687 8.31687 0 0 0 .78574 6.46823 7.93084 7.93084 0 0 0 5.05929 3.74947l47.70464-6.36356a8.061 8.061 0 0 0 6.52214-1.26225z" fill="#2f2e41" transform="translate(-213.44291 -144.5982)"/><circle cx="99.20882" cy="190.99814" fill="#9f616a" r="39.88209"/><path d="m299.94834 372.20305c2.119.92721 6.45835-15.95756 4.51455-19.33465-2.89075-5.02229-2.71986-4.98621-4.63887-8.30894s-2.34839-7.87074.13667-10.79436 8.23583-2.53577 9.37 1.12986c-.72958-6.96252 6.15725-12.55932 12.97892-14.13211s14.01732-.5963 20.87662-1.99592c7.96055-1.62432 16.2431-8.29715 13.067-17.051a12.32977 12.32977 0 0 0 -2.40493-3.95245c-3.66966-4.126-8.80288-5.88779-13.82183-7.59131-10.4411-3.54387-21.16788-7.13225-32.18706-6.741-18.10539.64277-35.21955 13.15863-41.31952 30.2176a42.47288 42.47288 0 0 0 -1.75928 6.53634c-3.7822 20.33678 8.02752 40.39668 27.20868 48.1409z" fill="#2f2e41" transform="translate(-213.44291 -144.5982)"/><path d="m509.09721 436.33656 4.57346 27.15606a1.67186 1.67186 0 0 1 -.09645.89874l-35.88045 89.65335a1.67163 1.67163 0 0 1 -3.22212-.55063l-1.51993-36.02744a1.67151 1.67151 0 0 1 .12149-.69977l32.82692-80.782a1.67164 1.67164 0 0 1 3.19708.35168z" fill="#3f3d56" transform="translate(-213.44291 -144.5982)"/><path d="m293.114 293.823 4.346 23.33-31.841 81.811-4.134-26.317z" fill="#6c63ff"/><path d="m367.24714 553.62768c.78342 3.05836 103.64017 6.36858 104.70682 5.44356a21.67414 21.67414 0 0 0 2.47407-3.82766c1.07778-1.92515 2.07587-3.856 2.07587-3.856l-1.6905-32.52915-101.32132-10.82783s-4.48257 27.14579-5.88985 39.617a29.957 29.957 0 0 0 -.35509 5.98008z" fill="#3f3d56" transform="translate(-213.44291 -144.5982)"/><path d="m248.114 377.702.009 28.025-44.814-3.186 1.983-27.884z" opacity=".1"/><path d="m189.717 382.557.271-.034-2.116 11.914-24.897-1.77.85-11.951z" opacity=".1"/><g transform="translate(-213.44291 -144.5982)"><path d="m367.24714 553.62768c.78342 3.05836 103.64017 6.36858 104.70682 5.44356a21.67414 21.67414 0 0 0 2.47407-3.82766l-106.8258-7.596a29.957 29.957 0 0 0 -.35509 5.9801z" opacity=".1"/><path d="m325.94633 505.05131 86.76393 16.192a17.07827 17.07827 0 0 0 .73363 1.59338 17.90571 17.90571 0 0 0 11.49146 8.97255 17.72 17.72 0 0 0 14.39865-2.60867 17.8638 17.8638 0 0 0 -18.475-30.51175 17.16787 17.16787 0 0 0 -2.02 1.27194l-75.361-25.744-3.85719-19.42893-31.25945 2.06817 3.239 32.56972a17.76744 17.76744 0 0 0 14.34597 15.62559z" fill="#9f616a"/><path d="m307.30246 471.3831 45.42218-14.92881-10.59552-30.42282a18.135 18.135 0 0 0 -20.10734-11.92359 18.13492 18.13492 0 0 0 -15.15252 18.08864z" fill="#2f2e41"/><path d="m595.44291 755.4018h-381a1 1 0 1 1 0-2h381a1 1 0 0 1 0 2z" fill="#cbcbcb"/><path d="m743.64988 723.89539c18.27372 9.45731 26.39842 30.0488 26.39842 30.0488s-21.50286 5.25812-39.77654-4.19918-26.39843-30.04881-26.39843-30.04881 21.50282-5.25813 39.77655 4.19919z" fill="#f1f1f1"/><path d="m737.80616 730.70767c10.90465 17.44872 32.08594 23.881 32.08594 23.881s3.50132-21.85773-7.40333-39.30649-32.08594-23.881-32.08594-23.881-3.50138 21.85782 7.40333 39.30649z" fill="#f1f1f1"/><path d="m803.44291 755.00527h-114a1 1 0 0 1 0-2h114a1 1 0 0 1 0 2z" fill="#cbcbcb"/></g></svg>